<?xml version="1.0" encoding="utf-8"?>
<!-- Generator: Adobe Illustrator 23.0.1, SVG Export Plug-In . SVG Version: 6.00 Build 0)  -->
<svg version="1.1" id="Слой_1" xmlns="http://www.w3.org/2000/svg" xmlns:xlink="http://www.w3.org/1999/xlink" x="0px" y="0px"
	 viewBox="0 0 1280 800" style="enable-background:new 0 0 1280 800;" xml:space="preserve">
<style type="text/css">
	.st0{fill-rule:evenodd;clip-rule:evenodd;fill:url(#SVGID_1_);}
	.st1{fill-rule:evenodd;clip-rule:evenodd;fill:url(#SVGID_2_);}
	.st2{fill:url(#SVGID_3_);}
	.st3{fill:#1D1D1B;}
	.st4{fill:#FFFFFF;}
	.st5{fill-rule:evenodd;clip-rule:evenodd;fill:#1D1D1B;}
</style>
<g>
	<linearGradient id="SVGID_1_" gradientUnits="userSpaceOnUse" x1="1173.6357" y1="349.7315" x2="1237.7491" y2="349.7315">
		<stop  offset="0" style="stop-color:#D15697"/>
		<stop  offset="1" style="stop-color:#2D1A4C"/>
	</linearGradient>
	<polygon class="st0" points="1226.9,223.4 1237.7,225.7 1184.5,476.1 1173.6,473.8 	"/>
	<linearGradient id="SVGID_2_" gradientUnits="userSpaceOnUse" x1="1020.3705" y1="211.6292" x2="1254.8591" y2="211.6292">
		<stop  offset="0" style="stop-color:#D15697"/>
		<stop  offset="1" style="stop-color:#2D1A4C"/>
	</linearGradient>
	<path class="st1" d="M1036.2,165.3c0,0,17.6-18.3,64.1-20.6c45.6-2.3,44.7,13.8,100.2,13.8c55.5,0,54.4,0,54.4,0l-24.1,100.3
		c0,0-22.4,23.3-53.9,19.6c-51-6-31.6-19-76.5-24c-44.9-5-80,18-80,18L1036.2,165.3z"/>
	<g>
		<linearGradient id="SVGID_3_" gradientUnits="userSpaceOnUse" x1="243.8532" y1="527.6987" x2="286.3749" y2="454.0491">
			<stop  offset="0" style="stop-color:#D15697"/>
			<stop  offset="1" style="stop-color:#2D1A4C"/>
		</linearGradient>
		<path class="st2" d="M261.5,512.1h-39.2c-5.6,0-10.5-2.1-14.6-6.3c-4.1-4.2-6.1-9.2-6.1-15c0-5.8,2-10.8,6.1-15
			c4.1-4.2,8.9-6.3,14.6-6.3h85.6c5.6,0,10.5,2.1,14.6,6.3c4.1,4.2,6.1,9.2,6.1,15c0,5.8-2,10.8-6.1,15c-4.1,4.2-8.9,6.3-14.6,6.3
			h-10.7"/>
	</g>
	<g>
		<path class="st3" d="M73.1,591.2v40c0,6.4-2.4,11.8-7.1,16.3c-4.7,4.5-10.4,6.8-16.9,6.8c-6.7,0-12.4-2.3-17-6.8
			c-4.6-4.5-6.9-10-6.9-16.3V489.6c0-6.5,2.3-12.1,6.9-16.6c4.6-4.5,10.3-6.8,17-6.8h63.5c20.3,0,36.2,4.5,47.7,13.3
			c14.3,11.3,21.5,27.5,21.5,48.8c0,18.2-6.8,33.4-20.4,45.8c-2.5,2.2-5,4.1-7.4,5.7l24.5,39c2.2,3.5,3.3,7.3,3.3,11.4
			c0,6.4-2.4,12-7.2,16.9c-4.8,4.9-10.5,7.4-17,7.4c-9.1,0-15.8-3.7-20.2-11.2l-31.3-52H73.1z M109.3,506.8H73.1v44.1h35.7
			c6.2,0,11.4-1.4,15.8-4.1c5.6-3.8,8.4-9.8,8.4-18c0-8-2.5-13.8-7.6-17.4C121.2,508.3,115.9,506.8,109.3,506.8z"/>
		<path class="st3" d="M199.2,596.9v-52c0-5.8,2.1-10.8,6.4-15c4.3-4.2,9.5-6.3,15.7-6.3c6.2,0,11.4,2.1,15.7,6.3
			c4.3,4.2,6.4,9.2,6.4,15v50.7c0,5.3,0.9,9.7,2.7,13.3c3.3,6.4,9.1,9.5,17.4,9.5c8.4,0,14.2-3.2,17.4-9.5c1.8-3.6,2.7-8.1,2.7-13.3
			v-50.7c0-5.8,2.1-10.8,6.4-15c4.3-4.2,9.5-6.3,15.7-6.3c6.2,0,11.4,2.1,15.7,6.3c4.3,4.2,6.4,9.2,6.4,15v52c0,15.8-4,28.4-12,37.9
			c-10.9,13.1-28.3,19.6-52.3,19.6s-41.4-6.5-52.3-19.6C203.2,625.4,199.2,612.7,199.2,596.9z"/>
		<path class="st3" d="M511.2,491c0,6.4-2.2,11.7-6.5,15.9c-4.4,4.3-9.6,6.4-15.8,6.4c-1.6,0-3.4-0.2-5.2-0.7
			c-1.8-0.5-4-1.1-6.4-1.9c-2.5-0.8-4.6-1.4-6.4-1.8c-5.3-1.5-11.5-2.2-18.8-2.2c-13.8,0-25.5,4.9-35.1,14.7
			c-9.6,9.8-14.4,22.3-14.4,37.3c0,15.1,4.7,27.5,14,37.3c9.4,9.8,21.2,14.7,35.6,14.7c6.9,0,13.4-0.8,19.6-2.5
			c2-0.5,4.5-1.3,7.5-2.2c3-0.9,5.5-1.6,7.5-2c2-0.5,3.8-0.7,5.4-0.7c6.2,0,11.4,2.1,15.8,6.4c4.4,4.3,6.5,9.6,6.5,15.9
			c0,9.8-6,17-18,21.5c-13.3,4.7-27.9,7.1-43.9,7.1c-29.6,0-53.7-8.7-72.3-26c-18.6-17.3-27.9-40.5-27.9-69.6
			c0-27.1,9.9-49.7,29.8-67.8c19.9-18.2,43.5-27.2,71-27.2c15.3,0,28.8,2,40.6,6C505.4,473.7,511.2,480.8,511.2,491z"/>
		<path class="st3" d="M671.6,508.7h-39.2v122.6c0,6.4-2.4,11.8-7.1,16.3c-4.7,4.5-10.4,6.8-16.9,6.8s-12.2-2.3-16.9-6.8
			c-4.7-4.5-7.1-10-7.1-16.3V508.7h-39.2c-5.6,0-10.5-2.1-14.6-6.3c-4.1-4.2-6.1-9.2-6.1-15c0-5.8,2-10.8,6.1-15
			c4.1-4.2,8.9-6.3,14.6-6.3h126.4c5.6,0,10.5,2.1,14.6,6.3c4.1,4.2,6.1,9.2,6.1,15c0,5.8-2,10.8-6.1,15
			C682.1,506.6,677.3,508.7,671.6,508.7z"/>
		<path class="st3" d="M733.8,466.2h96.2c5.6,0,10.5,2.1,14.6,6.3c4.1,4.2,6.1,9.2,6.1,15c0,5.8-2,10.8-6.1,15
			c-4.1,4.2-8.9,6.3-14.6,6.3h-72.2V537h60.5c5.6,0,10.5,2.1,14.6,6.3c4.1,4.2,6.1,9.2,6.1,15c0,5.8-2,10.8-6.1,15
			c-4.1,4.2-8.9,6.3-14.6,6.3h-60.5v51.8c0,6.4-2.4,11.8-7.1,16.3c-4.7,4.5-10.4,6.8-16.9,6.8s-12.2-2.3-16.9-6.8
			c-4.7-4.5-7.1-10-7.1-16.3V489.3c0-6.4,2.4-11.8,7.1-16.3C721.6,468.4,727.2,466.2,733.8,466.2z"/>
	</g>
	<g>
		<g>
			<path class="st4" d="M230.4,498.1h8.1c0.8,0,1.4,0.3,1.9,0.8c0.5,0.6,0.8,1.2,0.8,2c0,0.8-0.3,1.4-0.8,2
				c-0.5,0.5-1.2,0.8-1.9,0.8h-12.4c-0.8,0-1.4-0.3-1.9-0.8c-0.5-0.5-0.8-1.2-0.8-2.1c0-1.8,0.2-3.3,0.7-4.6
				c0.5-1.2,1.2-2.4,2.3-3.4c0.9-0.9,2.3-1.8,4.1-2.7c1.8-0.9,3-1.6,3.5-2.2c0.6-0.6,0.9-1.3,0.9-2.1c0-0.7-0.2-1.2-0.7-1.6
				c-0.4-0.4-1.1-0.6-1.9-0.6c-0.9,0-1.8,0.3-2.7,0.8c-0.1,0.1-0.4,0.2-0.7,0.4c-0.3,0.2-0.6,0.3-0.8,0.4c-0.2,0.1-0.4,0.2-0.7,0.3
				c-0.3,0.1-0.6,0.1-0.8,0.1c-0.8,0-1.5-0.3-2-0.8c-0.5-0.5-0.8-1.2-0.8-2c0-1.4,1.1-2.6,3.2-3.6c1.7-0.8,3.6-1.1,5.9-1.1
				c2.6,0,4.7,0.8,6.3,2.5c1.2,1.3,1.8,2.9,1.8,4.8c0,2.2-0.8,4.1-2.3,5.7c-0.9,0.9-2.2,1.8-3.9,2.7c-1.7,0.9-2.7,1.5-3.2,1.9
				C230.8,496.4,230.4,497.2,230.4,498.1z"/>
			<path class="st4" d="M263.2,491.2c0,4.2-0.8,7.4-2.5,9.6c-1.6,2.2-4,3.3-7.1,3.3c-3.1,0-5.5-1.1-7.1-3.3
				c-1.6-2.2-2.5-5.4-2.5-9.6c0-4.2,0.8-7.4,2.5-9.6c1.6-2.2,4-3.3,7.1-3.3c3.1,0,5.5,1.1,7.1,3.3
				C262.4,483.8,263.2,487,263.2,491.2z M256.8,491.2c0-2.5-0.3-4.3-0.8-5.4c-0.5-1-1.3-1.5-2.3-1.5c-1,0-1.7,0.5-2.3,1.5
				c-0.6,1.2-1,3-1,5.4c0,2.5,0.3,4.3,0.9,5.4c0.5,1,1.3,1.5,2.3,1.5c1,0,1.8-0.5,2.3-1.5C256.5,495.5,256.8,493.7,256.8,491.2z"/>
			<path class="st4" d="M279.1,498.1h3.6c0.7,0,1.4,0.3,1.9,0.8c0.5,0.6,0.8,1.2,0.8,1.9c0,0.8-0.3,1.4-0.8,2
				c-0.5,0.5-1.2,0.8-1.9,0.8h-14c-0.8,0-1.4-0.3-1.9-0.8c-0.5-0.5-0.8-1.2-0.8-2c0-0.7,0.3-1.4,0.8-1.9c0.5-0.6,1.2-0.8,1.9-0.8h4
				v-13l-3.2,1c-0.3,0.1-0.5,0.1-0.8,0.1c-0.8,0-1.4-0.2-2-0.7c-0.6-0.5-0.8-1.2-0.8-2.1c0-0.6,0.2-1.2,0.5-1.7
				c0.3-0.5,0.8-0.8,1.3-1l6.6-2.1c0.7-0.2,1.3-0.3,2-0.3c0.9,0,1.6,0.3,2.1,0.9c0.5,0.6,0.7,1.3,0.7,2.2V498.1z"/>
			<path class="st4" d="M305.5,490.3c0,1.2-0.1,2.3-0.2,3.4c-0.1,1.1-0.5,2.3-0.9,3.6c-0.5,1.3-1.1,2.4-1.8,3.4
				c-0.8,1-1.8,1.8-3.2,2.4c-1.3,0.6-2.9,1-4.7,1c-2.3,0-4.1-0.3-5.4-1c-1.4-0.7-2.1-1.7-2.1-3c0-0.8,0.3-1.5,0.8-2
				c0.6-0.6,1.2-0.8,2.1-0.8c0.5,0,1.2,0.2,2.2,0.7c0.8,0.4,1.6,0.6,2.5,0.6c1.2,0,2.3-0.6,3.1-1.7c0.5-0.7,0.8-1.6,1-2.6
				c-1.2,0.5-2.5,0.8-4,0.8c-1,0-2-0.1-2.9-0.4c-0.9-0.3-1.8-0.7-2.6-1.3c-0.8-0.6-1.4-1.4-1.9-2.5c-0.5-1.1-0.7-2.4-0.7-3.8
				c0-2.6,0.9-4.7,2.6-6.2c1.7-1.6,3.9-2.3,6.5-2.3c1.2,0,2.3,0.2,3.4,0.5c1,0.3,2,0.9,3,1.7c1,0.8,1.8,2,2.3,3.7
				C305.2,485.9,305.5,487.9,305.5,490.3z M299.3,488.8c0-1.1-0.2-2.1-0.4-2.8c-0.2-0.7-0.6-1.3-1-1.5c-0.4-0.3-0.8-0.5-1-0.5
				c-0.3-0.1-0.6-0.1-0.9-0.1c-0.8,0-1.5,0.3-2.1,0.9c-0.5,0.6-0.8,1.3-0.8,2.1c0,2,0.9,3,2.7,3C297,489.8,298.1,489.5,299.3,488.8z
				"/>
		</g>
	</g>
	<g>
		<path class="st3" d="M929.6,584.7c-3.2,0-6.4-0.7-9.4-2.1c-11.3-5.2-16.3-18.6-11.1-30l12.8-27.9c5-11,17.8-16,29-11.5l47.5,19.1
			l19.6-54.5l19.7-76.9l-32.9,8.1L979.3,462c-5.4,11.2-18.9,16-30.2,10.5c-11.2-5.4-16-18.9-10.5-30.2l30.1-62.5
			c2.9-6.1,8.4-10.5,15-12.1l79.8-19.6c7.7-1.9,15.8,0.4,21.4,6c5.6,5.6,7.8,13.8,5.8,21.5l-29.3,114.5c-0.2,0.7-0.4,1.4-0.6,2
			l-27.9,77.5c-2.1,5.8-6.4,10.5-12,13c-5.6,2.5-12,2.6-17.7,0.3l-49.3-19.8l-3.8,8.3C946.3,579.8,938.1,584.7,929.6,584.7z"/>
	</g>
	<g>
		<path class="st3" d="M1143.4,655.5h-17.3c-10.1,0-18.9-6.7-21.7-16.3l-22.5-78.1l-57-58.4c-5.5-5.7-7.7-13.8-5.7-21.5l30.1-115.2
			c2.4-9,10-15.6,19.2-16.7c9.2-1.1,18.2,3.6,22.6,11.9l32.9,62l56.5-5.4c12.4-1.2,23.4,7.9,24.6,20.4c1.2,12.4-7.9,23.4-20.4,24.6
			l-71.5,6.8c-9.1,0.9-17.8-3.8-22.1-11.9l-12.8-24.1l-12.2,46.8l52.1,53.4c2.6,2.7,4.5,5.9,5.5,9.5l19.4,67.3h0.3
			c12.5,0,22.6,10.1,22.6,22.6C1166,645.4,1155.9,655.5,1143.4,655.5z"/>
	</g>
	<path class="st5" d="M1100.7,363.7c27.6-5.9,45.2-33.1,39.3-60.7c-5.9-27.6-33.1-45.2-60.7-39.3c-27.7,5.9-45.2,33.1-39.3,60.7
		C1045.9,352,1073.1,369.6,1100.7,363.7z"/>
</g>
</svg>
